<?xml version="1.0" encoding="utf-8"?>
<!-- Generator: Adobe Illustrator 25.2.0, SVG Export Plug-In . SVG Version: 6.00 Build 0)  -->
<svg version="1.1" id="Layer_1" width="168.88933" height="62.666668" xmlns="http://www.w3.org/2000/svg" xmlns:xlink="http://www.w3.org/1999/xlink" x="0px" y="0px"
	 viewBox="0 0 1712 567" style="enable-background:new 0 0 1712 567;" xml:space="preserve">
<style type="text/css">
	.st0{fill:#B1D055;}
	.st1{fill:#66933D;}
	.st2{fill:#42862F;}
	.st3{fill:#2A0F11;}
	.st4{fill:none;}
	.st5{fill:#A39B7A;}
	.st6{fill:#7D705A;}
</style>
<g>
	<g>
		<path class="st0" d="M429.54,92.3c0,0,22.55,10.82,28-22.93c0,0-23.77-9.19-28.74,20.73c0,0,12.85-13.42,20.91-14.78
			C449.71,75.32,438.75,82.16,429.54,92.3z"/>
		<path class="st1" d="M214.37,304.53c0,0,11.35,22.02-21.91,28.37c0,0-9.77-23.28,19.71-29.04c0,0-12.93,13.11-14.04,21.12
			C198.13,324.98,204.58,313.94,214.37,304.53z"/>
		<path class="st2" d="M210.72,296.89c0,0-10.4,18.57-30.71-2.27c0,0,12.05-18.03,30.15,0.37c0,0-15.52-3.06-21.79-0.05
			C188.38,294.94,199.35,294.34,210.72,296.89z"/>
		<path class="st0" d="M218.32,299.48c0,0,18.01-2.92,14.85,21.82c0,0-18.52,1.53-15.83-20.43c0,0,6.22,12.04,11.58,14.65
			C228.93,315.52,222.68,308.48,218.32,299.48z"/>
		<path class="st0" d="M160.47,277.23c0,0,14.31-7.48,18.57,14.18c0,0-15.13,6.46-19-12.74c0,0,8.59,8.38,13.82,9.07
			C173.86,287.74,166.64,283.57,160.47,277.23z"/>
		<path class="st1" d="M150.42,276.3c0,0,13.09,1.17,6.48,17.87c0,0-13.2-2.23-7.41-17.08c0,0,2.2,9.51,5.47,12.29
			C154.97,289.38,151.86,283.35,150.42,276.3z"/>
		<path class="st2" d="M140.91,283.82c0,0,19.14,7.07,2.45,29.42c0,0-18.88-8.71-4.16-28.6c0,0-0.57,15.15,3.21,20.64
			C142.41,305.27,140.19,294.97,140.91,283.82z"/>
		<path class="st1" d="M130.88,287.26c0,0,11.68,18.15-16.64,26.43c0,0-10.42-19.37,14.67-26.83c0,0-10.12,12.44-10.41,19.49
			C118.5,306.35,123.18,296.24,130.88,287.26z"/>
		<path class="st2" d="M122.52,286.52c0,0-9.07,23.24-36.01,2.35c0,0,11.06-22.88,35.05-4.46c0,0-18.5-1.03-25.3,3.47
			C96.27,287.88,108.9,285.41,122.52,286.52z"/>
		<path class="st0" d="M124.4,284.44c0,0-18.49,0.37-11.81-24c0,0,18.81,1.1,12.98,22.75c0,0-4.53-12.97-9.54-16.35
			C116.03,266.84,121.31,274.79,124.4,284.44z"/>
		<path class="st1" d="M131.54,280.43c0,0-14.25-3.96-3.54-21.1c0,0,14.15,5.16,4.72,20.41c0,0-0.5-10.97-3.56-14.71
			C129.17,265.03,131.39,272.33,131.54,280.43z"/>
		<path class="st2" d="M114.37,253.29c0,0,4.73,11.84-12.62,13.45c0,0-3.86-12.4,11.53-13.9c0,0-7.27,6.07-8.23,10.13
			C105.05,262.96,108.9,257.63,114.37,253.29z"/>
		<path class="st0" d="M101.81,248.55c0,0,6.55,15.56-16.39,18.11c0,0-5.41-16.33,14.93-18.68c0,0-9.48,8.22-10.65,13.6
			C89.7,261.59,94.67,254.43,101.81,248.55z"/>
		<path class="st2" d="M89.87,246.12c0,0,1.68,12.72-15.65,9.99c0,0-0.69-13.06,14.7-10.71c0,0-8.6,4.13-10.54,7.84
			C78.37,253.25,83.46,249,89.87,246.12z"/>
		<path class="st1" d="M89.52,243.21c0,0-17.77,2.82-14.58-21.57c0,0,18.28-1.45,15.55,20.2c0,0-6.1-11.9-11.38-14.49
			C79.11,227.35,85.26,234.32,89.52,243.21z"/>
		<path class="st1" d="M98.66,243.85c0,0-16.8-8.49,0.84-27.21c0,0,16.38,9.96,0.82,26.64c0,0,2.11-13.82-0.78-19.25
			C99.54,224.04,100.48,233.7,98.66,243.85z"/>
		<path class="st2" d="M109.84,247.73c0,0-13.83-9.39,3.84-23.88c0,0,13.3,10.64-2.32,23.57c0,0,3.43-11.93,1.51-17.04
			C112.87,230.38,112.6,239,109.84,247.73z"/>
		<path class="st0" d="M119.39,249.83c0,0-7.9-18.86,19.88-21.91c0,0,6.52,19.78-18.11,22.6c0,0,11.49-9.94,12.92-16.46
			C134.08,234.07,128.04,242.73,119.39,249.83z"/>
		<path class="st2" d="M131.01,255.27c0,0-0.13-13.85,18.07-8.65c0,0-0.97,14.08-17.15,9.54c0,0,9.75-3.29,12.32-7.01
			C144.26,249.15,138.26,253.04,131.01,255.27z"/>
		<path class="st1" d="M163.25,266.08c0,0-12.25,4.28-13.11-13.43c0,0,12.78-3.37,13.62,12.34c0,0-5.85-7.66-9.93-8.82
			C153.83,256.18,159.08,260.33,163.25,266.08z"/>
		<path class="st0" d="M164.11,251.74c0,0-10.63,10.85-20.72-7.29c0,0,11.66-10.17,20.69,5.88c0,0-10.11-5-14.99-4.1
			C149.08,246.23,156.75,247.86,164.11,251.74z"/>
		<path class="st2" d="M164.04,241c0,0-11.41,7.2-16.42-10.54c0,0,12.16-6.4,16.68,9.32c0,0-7.72-6.39-12.12-6.61
			C152.18,233.16,158.48,236.14,164.04,241z"/>
		<path class="st1" d="M165.16,236.41c0,0-11.87-9.06,4.61-21.11c0,0,11.34,10.15-3.23,20.91c0,0,3.66-10.48,2.19-15.13
			C168.72,221.07,168.06,228.76,165.16,236.41z"/>
		<path class="st2" d="M167.73,238.83c0,0,2.32-13.9,19.64-5.47c0,0-3.47,13.93-18.86,6.52c0,0,10.35-1.57,13.58-4.85
			C182.08,235.04,175.38,237.87,167.73,238.83z"/>
		<path class="st1" d="M169.63,244.64c0,0,8.31-9.43,17.46,5.12c0,0-9.2,8.92-17.37-3.95c0,0,8.58,3.69,12.58,2.73
			C182.3,248.54,175.89,247.52,169.63,244.64z"/>
		<path class="st0" d="M174.53,255.17c0,0,1.18-11.1,15.27-5.24c0,0-2.09,11.18-14.61,6.04c0,0,8.11-1.73,10.51-4.47
			C185.71,251.5,180.54,254.06,174.53,255.17z"/>
		<path class="st2" d="M191.89,259.15c0,0-0.79-8.85-3.4-11.79c0.04,0.12,0.33,0.97,0.71,2.32c0.1,0.37,0.21,0.8,0.32,1.27v0.01
			c0.58,2.28,1.21,5.42,1.43,8.76v0.04c0,0-0.04-0.01-0.11-0.03c-0.59-0.16-3.43-1.05-5.11-3.66c-0.61-0.94-1.06-2.12-1.19-3.57
			c-0.01-0.14-0.02-0.29-0.03-0.46c-0.01-0.16-0.01-0.33-0.01-0.5c0.01-0.93,0.14-1.96,0.44-3.11c0.1-0.39,0.23-0.81,0.38-1.25
			c0.45-1.34,1.1-2.81,2.02-4.43C187.33,242.76,199,246.45,191.89,259.15z"/>
		<path class="st1" d="M205.75,259.39c0,0-13.85,1.5-10.45-17.24c0,0,14.19-0.42,11.24,16.22c0,0-4.26-9.43-8.24-11.64
			C198.31,246.73,202.79,252.35,205.75,259.39z"/>
		<path class="st0" d="M216.89,260.82c0,0-15.32-2.29-6.38-21.49c0,0,15.38,3.55,7.52,20.62c0,0-1.92-11.35-5.58-14.84
			C212.45,245.1,215.69,252.42,216.89,260.82z"/>
		<path class="st0" d="M221.18,261.74c0,0-5.46-16.34,18.07-17.16c0,0,4.24,17.03-16.63,17.86c0,0,10.28-7.63,11.89-13.02
			C234.51,249.41,228.9,256.31,221.18,261.74z"/>
		<path class="st0" d="M80.46,244.21c0,0-13.74,16.25-29.72-8.05c0,0,15.25-15.41,29.53,6.09c0,0-14.65-5.94-21.38-4.19
			C58.89,238.06,69.78,239.55,80.46,244.21z"/>
		<path class="st1" d="M226.22,296.54c0,0,12.08-11.15,22.02,9c0,0-13.16,10.37-22.06-7.47c0,0,10.67,5.95,15.99,5.24
			C242.17,303.31,233.97,301.13,226.22,296.54z"/>
		<path class="st1" d="M235.82,239.52c0,0-7.74-17.83-28.11-0.78c0,0,9.28,17.5,27.43,2.45c0,0-14.38,1.34-19.8-1.97
			C215.34,239.23,225.25,240.79,235.82,239.52z"/>
		<path class="st2" d="M223.53,227.13c0,0-2.63-20.91-29.02-9.37c0,0,4.34,21.03,27.8,10.9c0,0-15.37-2.98-20.01-8.07
			C202.3,220.58,212.14,225.23,223.53,227.13z"/>
		<path class="st0" d="M205.57,209.15c0,0-15.69-9.45-21.99,14.79c0,0,16.69,8.34,22.38-13.13c0,0-10.3,8.9-16.27,9.33
			C189.69,220.14,198.15,215.91,205.57,209.15z"/>
		<path class="st2" d="M184.69,206.97c0,0-15.34-8.5-20.54,14.9c0,0,16.26,7.41,20.97-13.33c0,0-9.55,8.87-15.24,9.48
			C169.87,218.02,177.82,213.69,184.69,206.97z"/>
		<path class="st1" d="M168.33,205.07c0,0-18.01-19.11-36.07,11.9c0,0,19.81,17.97,35.97-9.46c0,0-17.65,8.3-26.05,6.58
			C142.18,214.09,155.48,211.52,168.33,205.07z"/>
		<path class="st2" d="M139.99,187.77c0,0-15.37-9.4-21.74,14.39c0,0,16.36,8.32,22.11-12.76c0,0-10.19,8.68-16.06,9.06
			C124.3,198.47,132.65,194.37,139.99,187.77z"/>
		<path class="st2" d="M118.36,184.05c0,0-16.77-13.17-27.53,13.91c0,0,18.08,12.04,27.74-11.95c0,0-13.17,8.8-20.13,8.43
			C98.44,194.45,108.82,190.78,118.36,184.05z"/>
		<path class="st0" d="M110.59,176.58c0,0,8.63-19.79-20.65-23.43c0,0-7.19,20.79,18.78,24.14c0,0-11.98-10.67-13.4-17.58
			C95.32,159.71,101.56,168.95,110.59,176.58z"/>
		<path class="st1" d="M123.04,175.68c0,0,11.71-11.59-8.02-22.45c0,0-10.97,12.71,6.49,22.42c0,0-5.48-10.95-4.53-16.25
			C116.99,159.41,118.79,167.72,123.04,175.68z"/>
		<path class="st1" d="M102.22,179.1c0,0-13.39-20.86-35.54,4.78c0,0,15.27,20.12,35.02-2.53c0,0-17.82,4.63-25.32,1.58
			C76.37,182.93,89.17,182.86,102.22,179.1z"/>
		<path class="st2" d="M126.39,151.53c0,0,3.52-17.28-20.5-15.2c0,0-2.2,17.84,19.12,16.09c0,0-11.39-6.48-13.7-11.76
			C111.31,140.65,117.87,146.97,126.39,151.53z"/>
		<path class="st2" d="M126.06,134.74c0,0,5.11-17.58-19.91-17.47c0,0-3.79,18.27,18.41,18.27c0,0-11.23-7.67-13.17-13.33
			C111.39,122.21,117.64,129.3,126.06,134.74z"/>
		<path class="st1" d="M129.3,126.32c0,0,20.17-8.58,1.11-31.69c0,0-19.81,10.32-2.99,30.91c0,0-1.39-16.23,2.38-22.31
			C129.81,103.22,127.96,114.38,129.3,126.32z"/>
		<path class="st1" d="M131.1,135.25c0,0,17.87,13.26,28.33-15.3c0,0-19.21-12.05-28.61,13.26c0,0,13.49-9.56,20.76-9.37
			C151.58,123.82,140.86,127.94,131.1,135.25z"/>
		<path class="st0" d="M132.25,142.34c0,0,1.64,23.4,31.68,12.18c0,0-3.53-23.64-30.23-13.81c0,0,16.9,4.25,21.74,10.19
			C155.45,150.91,144.79,145.15,132.25,142.34z"/>
		<path class="st2" d="M156.8,181.61c0,0,18.11-7.96,0.66-28.61c0,0-17.76,9.53-2.36,27.93c0,0-1.44-14.63,1.9-20.16
			C157,160.76,155.46,170.86,156.8,181.61z"/>
		<path class="st3" d="M269.28,308.12c-1.99-1.89-3.76-3.41-5.14-4.55c-0.14-0.13-0.29-0.25-0.45-0.36c0.27,0.2,0.55,0.43,0.82,0.65
			c0.12,0.1,0.24,0.2,0.37,0.3c0.04,0.03,0.08,0.06,0.12,0.09c0.06,0.06,0.12,0.11,0.19,0.17c0.44,0.35,0.86,0.72,1.28,1.09
			C267.45,306.36,268.39,307.24,269.28,308.12z"/>
		<path class="st3" d="M185.48,177.11c-0.94,1.81-1.89,3.38-2.85,4.75c-0.36-2.02-0.58-4.28-0.57-6.77
			C184.17,176.04,185.48,177.11,185.48,177.11z"/>
		<path class="st3" d="M190.95,259.72v0.04c0,0-0.04-0.01-0.11-0.03C190.87,259.72,190.92,259.72,190.95,259.72z"/>
		<path class="st3" d="M210.83,273.86c-2.82-0.74-6.02-1.25-9.64-1.35c0.03-0.32,0.06-0.65,0.09-0.98
			C201.29,271.53,206.47,270.97,210.83,273.86z"/>
		<path class="st3" d="M218.33,91.11c-0.02,4.26-0.53,7.68-1.37,10.41c-0.51-3.36-0.85-6.94-0.93-10.67
			C217.43,90.92,218.33,91.11,218.33,91.11z"/>
		<path class="st3" d="M248.42,116.35v0.01c-0.34,0.75-0.75,1.42-1.19,2.01l0.99-8.64C248.21,109.74,248.17,112.33,248.42,116.35z"
			/>
		<path class="st3" d="M260.26,259.55c0,0-0.13,0.46-0.45,1.19c-1.2-1.03-2.4-2.08-3.58-3.15
			C257.51,258.13,258.85,258.79,260.26,259.55z"/>
		<path class="st3" d="M264.51,303.86c-0.12-0.1-0.24-0.19-0.37-0.28c-0.14-0.13-0.29-0.25-0.45-0.36
			C263.97,303.41,264.24,303.63,264.51,303.86z"/>
		<path class="st3" d="M270.87,271.31c-1.14-1.24-2.35-2.47-3.59-3.69c-0.08-0.09-0.15-0.16-0.23-0.24
			c-1.28-1.26-2.59-2.5-3.96-3.74c2.35-0.74,5.34-1.15,9.13-1.07C272.22,262.58,273.09,267.16,270.87,271.31z"/>
		<path class="st3" d="M295.02,229.13c-0.35,0.7-0.72,1.36-1.08,1.99c-0.87-1.24-1.84-2.69-2.88-4.34
			C293.5,227.9,295.02,229.13,295.02,229.13z"/>
		<path class="st3" d="M308.29,184.56c-0.26,0.03-0.52,0.05-0.77,0.07c-1.4-4.03-2.05-7.92-2.24-11.46
			C308.93,178.27,308.29,184.56,308.29,184.56z"/>
		<path class="st3" d="M328.41,231.44c-0.24,1.66-0.59,3.07-1,4.26c0.07-1.59,0.13-3.09,0.17-4.51
			C328.1,231.33,328.41,231.44,328.41,231.44z"/>
		<path class="st3" d="M331.41,91.48c-1.56-1.82-3.36-3.42-5.32-4.78c-0.14-0.11-0.28-0.2-0.42-0.29c-1.6-1.1-3.29-2.06-5.05-2.88
			c-0.04-0.02-0.07-0.03-0.11-0.05c-24.68-11.61-22.8-27.15-22.8-27.15s2.88,15.18,31.49,21.88c0.18,0.24,0.35,0.47,0.51,0.68
			c0.1,0.12,0.2,0.23,0.31,0.35c0.11,0.13,0.24,0.25,0.38,0.36h0.01C331.69,84.56,331.89,88.44,331.41,91.48z"/>
		<path class="st3" d="M339.81,171.32c-0.84,6.15-2.57,10.12-4.65,12.66c1.04-4.28,1.85-8.73,2.47-13.17
			C338.97,171.02,339.81,171.32,339.81,171.32z"/>
		<path class="st3" d="M351.9,138.65c-9.86-4.16-7.26-14.87-7.26-14.87c2.58,0.07,4.8,0.35,6.68,0.8c0.19,2.28,0.31,4.5,0.4,6.61
			c0.02,0.49,0.04,0.97,0.06,1.45C351.86,134.76,351.89,136.78,351.9,138.65z"/>
		<path class="st3" d="M376.69,155.84c-1.34-0.12-2.54-0.31-3.62-0.55c-0.01-1.18,0.04-2.35,0.14-3.5c0,0,0,0,0-0.01
			c0.01-0.14,0.03-0.29,0.04-0.44c0.19-1.9,0.52-3.77,0.95-5.56C378.59,149.74,376.69,155.84,376.69,155.84z"/>
		<path class="st3" d="M381.85,128.34c-1.12,5.69-3.23,9-5.59,10.85C378.01,134.7,380.16,130.95,381.85,128.34z"/>
		<path class="st3" d="M403.06,116.8c-0.7,1.87-1.46,3.61-2.24,5.25c0,0.01,0,0.01,0,0.02c-0.18,0.38-0.36,0.76-0.55,1.12
			l-0.01,0.01c-1.64,3.31-3.36,6.07-4.78,8.16c-4.75-10.08,4.4-17.41,4.4-17.41C401.08,114.93,402.12,115.87,403.06,116.8z"/>
		<path class="st3" d="M407.81,136.03c-0.76,1.21-1.62,2.17-2.32,2.85C406.25,137.88,407.01,136.96,407.81,136.03z"/>
		<path class="st2" d="M260.26,259.55c0,0-0.13,0.46-0.45,1.19c-1.68,4.05-8.55,16.47-26.53,6.86c0,0,14.68-1.59,19.43-6.01
			c0,0-9.61,3.59-20.45,4.49c0,0,3.63-17.21,23.97-8.48C257.51,258.13,258.85,258.79,260.26,259.55z"/>
		<path class="st1" d="M270.87,271.31c-1.87,3.48-5.93,6.65-14.53,6.51c0,0,8.43-5.57,10.93-10.2c0.17-0.31,0.31-0.62,0.42-0.92
			c-0.05,0.06-0.27,0.29-0.65,0.68c-1.65,1.7-6.23,6.18-11.97,9.74c0,0-2.75-10.1,8.01-13.48c2.35-0.74,5.34-1.15,9.13-1.07
			C272.22,262.58,273.09,267.16,270.87,271.31z"/>
		<path class="st1" d="M189.7,176.3c-1.11,2.13-2.22,3.97-3.34,5.57c-12.39,17.7-25.18,5.38-25.18,5.38
			c10.08-5.68,20.66-8.26,20.66-8.26c-6.82-1.06-20.68,6.3-20.68,6.3c8.29-15.78,18.87-13.95,24.53-11.37
			C188.17,175.04,189.7,176.3,189.7,176.3z"/>
		<path class="st1" d="M182.04,167.13c0,0,16.57-13.04-6.95-29.71c0,0-15.79,14.57,5.01,29.45c0,0-5.38-14.71-3.41-21.31
			C176.69,145.56,177.79,156.39,182.04,167.13z"/>
		<path class="st0" d="M184.78,170.91c0,0,16.34,13.51,27.71-13.14c0,0-17.67-12.42-27.88,11.18c0,0,13.31-8.42,20.22-7.88
			C204.84,161.07,194.43,164.45,184.78,170.91z"/>
		<path class="st2" d="M191.67,185.9c0,0,13.36,11.46,23.21-10.49c0,0-14.48-10.58-23.31,8.86c0,0,11.18-6.78,16.91-6.23
			C208.47,178.04,199.78,180.69,191.67,185.9z"/>
		<path class="st0" d="M226.45,201.36c0,0,21.41-1.24,11.49-28.82c0,0-21.65,2.96-12.96,27.47c0,0,4.07-15.4,9.56-19.76
			C234.54,180.26,229.15,189.93,226.45,201.36z"/>
		<path class="st2" d="M250.51,217.67c0,0,9.96-21.51-22.09-26.22c0,0-8.4,22.64,20.02,26.95c0,0-12.89-12-14.27-19.62
			C234.16,198.79,240.78,209.08,250.51,217.67z"/>
		<path class="st2" d="M295.02,229.13c-0.35,0.7-0.72,1.36-1.08,1.99c-13.14,23.29-27.83,9.25-27.83,9.25
			c10.21-5.82,20.95-8.47,20.95-8.47c-6.93-1.04-20.97,6.48-20.97,6.48c8.41-16.17,19.25-14.22,24.98-11.6
			C293.5,227.9,295.02,229.13,295.02,229.13z"/>
		<path class="st0" d="M257.66,212.79c0,0-2.56,21.66,26.82,16.62c0,0,0.87-22.21-25.22-17.85c0,0,14.7,6.81,18.09,13.08
			C277.36,224.63,268.63,217.53,257.66,212.79z"/>
		<path class="st1" d="M255.43,209.13c0,0,18.92-0.2,11.33-24.93c0,0-19.21,1.71-12.57,23.68c0,0,4.23-13.41,9.25-17.02
			C263.44,190.87,258.29,199.17,255.43,209.13z"/>
		<path class="st1" d="M238.41,159.61c0,0-11.71-20.97-34.65,2.5c0,0,13.56,20.36,34.02-0.37c0,0-17.51,3.42-24.58,0.02
			C213.19,161.77,225.57,162.47,238.41,159.61z"/>
		<path class="st2" d="M222.02,143.58c0,0-7.44-17.4-27.36-0.91c0,0,8.94,17.08,26.69,2.53c0,0-14.01,1.23-19.27-2.02
			C202.08,143.18,211.73,144.76,222.02,143.58z"/>
		<path class="st1" d="M205.29,128.27c0,0-11.34-18.63-31.36,3.46c0,0,13.01,18.01,30.86-1.5c0,0-15.77,3.71-22.31,0.87
			C182.48,131.09,193.74,131.3,205.29,128.27z"/>
		<path class="st1" d="M185.92,115.57c0,0-14.01-12.73-25.26,10.57c0,0,15.24,11.81,25.32-8.81c0,0-12.22,6.95-18.36,6.18
			C167.63,123.51,177.05,120.93,185.92,115.57z"/>
		<path class="st0" d="M192.72,109.06c0,0,18.18-16.49-10.48-33.94c0,0-17.15,18.2,8.21,33.8c0,0-7.44-16.65-5.69-24.48
			C184.75,84.44,186.91,96.93,192.72,109.06z"/>
		<path class="st2" d="M180.02,106.61c0,0,0.15-23.83-31.15-14.8c0,0,1.75,24.22,29.55,16.33c0,0-16.79-5.62-21.24-12.01
			C157.19,96.14,167.53,102.8,180.02,106.61z"/>
		<path class="st2" d="M215.34,90.76c0,0,0.15-23.94-31.28-14.86c0,0,1.75,24.33,29.68,16.4c0,0-16.87-5.64-21.33-12.06
			C192.41,80.24,202.8,86.93,215.34,90.76z"/>
		<path class="st1" d="M217.07,74.16c0,0,14.93-11.3-5.67-26.48c0,0-14.26,12.67,3.96,26.22c0,0-4.53-13.15-2.67-18.98
			C212.68,54.93,213.48,64.56,217.07,74.16z"/>
		<path class="st2" d="M221.97,82.24c0,0,22.38,9.44,26.08-23.55c0,0-23.48-7.8-26.9,21.45c0,0,11.84-13.62,19.59-15.31
			C240.74,64.83,230.43,71.97,221.97,82.24z"/>
		<path class="st2" d="M223.85,91.29c0,0,5.02,22.88,33.06,7.43c0,0-6.93-22.84-31.86-9.24c0,0,17.31,1.74,22.96,6.91
			C248,96.38,236.64,92.24,223.85,91.29z"/>
		<path class="st1" d="M250.61,106.68c0,0,19,7.01,20.82-20.61c0,0-19.86-5.6-21.59,18.89c0,0,9.34-11.8,15.73-13.5
			C265.58,91.46,257.26,97.8,250.61,106.68z"/>
		<path class="st0" d="M250.91,110.03c0,0-5.14,15.86,17.64,16.44c0,0,3.95-16.52-16.25-17.13c0,0,10.01,7.29,11.62,12.49
			C263.92,121.84,258.43,115.21,250.91,110.03z"/>
		<path class="st2" d="M256.74,147.42c0,0,19.26,6.84,20.77-21.05c0,0-20.11-5.41-21.56,19.33c0,0,9.28-12.02,15.71-13.81
			C271.66,131.88,263.35,138.38,256.74,147.42z"/>
		<path class="st1" d="M279.05,127.6c0,0,9.48-18.74-18.76-23.91c0,0-8.14,19.79,16.89,24.49c0,0-11.04-11.03-12.03-17.82
			C265.15,110.37,270.7,119.69,279.05,127.6z"/>
		<path class="st1" d="M284.58,128.07c0,0,19.83,4.36,17.86-23.32c0,0-20.49-2.85-18.85,21.72c0,0,7.66-12.99,13.78-15.56
			C297.36,110.91,289.98,118.35,284.58,128.07z"/>
		<path class="st0" d="M284.68,132.77c0,0-1.25,19.28,24.51,13.45c0,0-0.27-19.69-23.14-14.62c0,0,13.33,5.34,16.62,10.73
			C302.67,142.33,294.61,136.45,284.68,132.77z"/>
		<path class="st1" d="M317.03,191.18c-0.36,0.04-0.71,0.07-1.06,0.1c-35.66,3.38-30.92-22.76-30.92-22.76
			c13.23,6.71,23.51,16.2,23.51,16.2c-3.72-8.03-21.43-17.61-21.43-17.61c14.34-1.49,21.86,2.96,25.76,8.43
			C317.9,182.53,317.03,191.18,317.03,191.18z"/>
		<path class="st2" d="M308.69,154.91c0,0,19.65-1.82,9.65-26.87c0,0-19.82,3.42-11.05,25.69c0,0,3.26-14.3,8.16-18.48
			C315.46,135.24,310.81,144.31,308.69,154.91z"/>
		<path class="st1" d="M309.67,162.62c0,0,11.4,16.12,28.1-5.07c0,0-12.86-15.46-27.77,3.26c0,0,14.01-4.32,20.09-2.16
			C330.09,158.65,319.91,159.16,309.67,162.62z"/>
		<path class="st1" d="M338.8,144.3c0,0,1.05-19.71-25.19-13.44c0,0,0.51,20.1,23.82,14.65c0,0-13.68-5.29-17.1-10.75
			C320.32,134.75,328.62,140.66,338.8,144.3z"/>
		<path class="st2" d="M327.88,121.25c0,0-7.05-15.97-25.25-0.55c0,0,8.43,15.66,24.64,2.05c0,0-12.9,1.29-17.79-1.66
			C309.49,121.1,318.4,122.45,327.88,121.25z"/>
		<path class="st0" d="M316.39,110c0,0,3.35-21-25.47-17.25c0,0-1.73,21.6,23.86,18.39c0,0-14.05-7.22-17.11-13.46
			C297.67,97.68,305.89,104.95,316.39,110z"/>
		<path class="st1" d="M336.2,87.97c-2.33,14.79-16.81,14.39-16.81,14.39c3.05-9.28,7.68-17.31,9.79-20.71
			c0.7-1.12,1.11-1.74,1.11-1.74c-0.56,0.37-1.11,0.83-1.66,1.37c-5.77,5.65-10.72,19.46-10.72,19.46
			c-3.17-12.18-0.32-19.26,3.9-23.35c4.65-4.55,10.95-5.46,12.57-5.62c0.25-0.01,0.39-0.03,0.39-0.03c0.04,0.17,0.09,0.33,0.12,0.51
			h0.01C336.57,78.83,336.84,83.96,336.2,87.97z"/>
		<path class="st2" d="M333,114.75c0,0,18.07-7.1,1.76-28.04c0,0-17.79,8.65-3.41,27.3c0,0-0.84-14.4,2.66-19.7
			C334.02,94.31,332.11,104.15,333,114.75z"/>
		<path class="st1" d="M313.28,96.35c0,0,12.13-18.93-17.38-27.49c0,0-10.81,20.19,15.34,27.91c0,0-10.56-12.94-10.88-20.27
			C300.36,76.5,305.25,87.02,313.28,96.35z"/>
		<path class="st0" d="M298.77,65.87c0,0-9.63-24.41-37.89-2.33c0,0,11.73,24.02,36.89,4.55c0,0-19.46,1.16-26.62-3.55
			C271.15,64.54,284.45,67.1,298.77,65.87z"/>
		<path class="st2" d="M301.5,59.84c0,0,18.86,3.2,15.74-22.75c0,0-19.41-1.75-16.75,21.29c0,0,6.62-12.57,12.26-15.27
			C312.74,43.11,306.13,50.44,301.5,59.84z"/>
		<path class="st1" d="M298.42,55.11c0,0,11.12-20.47-20.02-27.11c0,0-9.66,21.68,17.94,27.7c0,0-11.88-12.58-12.76-20.14
			C283.58,35.56,289.42,46.07,298.42,55.11z"/>
		<path class="st2" d="M349.2,62.07c0,0,22.58,14.47,32.79-20.74c0,0-24.09-12.89-33.3,18.3c0,0,15.43-12.6,24.19-12.99
			C372.88,46.64,360.33,52.48,349.2,62.07z"/>
		<path class="st2" d="M350.53,65.48c0,0-7.9,13.91,13.39,18.87c0,0,6.91-14.76-11.95-19.24c0,0,7.99,8.79,8.5,13.99
			C360.46,79.09,356.59,71.8,350.53,65.48z"/>
		<path class="st1" d="M349.54,105.07c0,0,15.46,4.07,14.81-17.77c0,0-16.03-2.9-15.54,16.48c0,0,6.45-9.98,11.35-11.8
			C360.16,91.98,354.1,97.59,349.54,105.07z"/>
		<path class="st2" d="M349.17,128.93c-1.99-2.06-3.17-3.49-3.31-3.67c0.51,1.72,1.8,3.62,3.39,5.48
			c4.19,4.92,10.47,9.53,10.47,9.53c-4.3-0.15-7.68-0.89-10.33-2.02c-12.32-5.2-9.07-18.58-9.07-18.58c3.22,0.09,5.99,0.44,8.35,1
			c17.55,4.02,12.72,18.78,12.72,18.78C356.28,135.91,351.97,131.81,349.17,128.93z"/>
		<path class="st0" d="M364.45,129.45c0,0,18.12-8.71-0.31-29.09c0,0-17.71,10.29-1.44,28.45c0,0-1.96-14.81,1.24-20.54
			C363.94,108.27,362.72,118.58,364.45,129.45z"/>
		<path class="st1" d="M385.62,122.12c-0.16,1.37-0.36,2.63-0.59,3.81l-0.01,0.01c-1.33,6.74-3.82,10.66-6.62,12.85v0.01
			c-5.93,4.69-13.17,1.61-13.17,1.61c6.43-7.73,14.18-13.17,14.66-13.51c-6.05,1.31-15.3,11.87-15.3,11.87
			C367.34,115.98,385.62,122.12,385.62,122.12z"/>
		<path class="st2" d="M384.38,121.62c0,0,15.76-12.48-6.7-28.3c0,0-15.02,13.93,4.85,28.07c0,0-5.17-14.01-3.31-20.31
			C379.22,101.07,380.3,111.39,384.38,121.62z"/>
		<path class="st1" d="M396.47,97.68c0,0,7.4-19.87-21.52-21.87c0,0-5.93,20.78,19.72,22.66c0,0-12.32-9.82-14.09-16.51
			C380.59,81.97,387.2,90.69,396.47,97.68z"/>
		<path class="st2" d="M395.51,75.09c0,0,7.71-20.7-22.42-22.78c0,0-6.18,21.64,20.54,23.61c0,0-12.84-10.22-14.67-17.2
			C378.96,58.71,385.85,67.8,395.51,75.09z"/>
		<path class="st0" d="M399.59,67.46c0,0,18.4-6.59,2.63-28.16c0,0-18.17,8.17-4.26,27.37c0,0-0.4-14.52,3.27-19.74
			C401.23,46.92,399.01,56.76,399.59,67.46z"/>
		<path class="st1" d="M402.93,75.62c0,0,18.92,10.59,25.46-18.32c0,0-20.06-9.24-25.99,16.37c0,0,11.85-10.91,18.89-11.64
			C421.29,62.03,411.45,67.35,402.93,75.62z"/>
		<path class="st2" d="M408.58,95.48c0,0,16.15,10.85,24.12-14.52c0,0-17.27-9.74-24.44,12.74c0,0,11.4-8.89,17.75-9.03
			C426,84.67,416.8,88.71,408.58,95.48z"/>
		<path class="st1" d="M407.42,110.81c0,0,14.13,15.4,28.84-9.09c0,0-15.58-14.52-28.73,7.15c0,0,14.14-6.42,20.81-4.96
			C428.34,103.91,417.72,105.81,407.42,110.81z"/>
		<path class="st0" d="M407.85,135.97c-0.01,0.02-0.02,0.04-0.04,0.06c-0.76,1.21-1.62,2.17-2.32,2.85
			c-0.81,0.78-1.41,1.18-1.41,1.18c-2.43-7.7-3.1-15.33-3.26-17.98c0-0.01,0-0.01,0-0.02c-0.04-0.63-0.05-0.97-0.05-0.97
			c-0.23,0.63-0.39,1.34-0.5,2.12l-0.01,0.01c-0.81,6.22,2.16,16.5,2.16,16.5c-3.52-2.92-5.7-5.72-6.94-8.34
			c-4.75-10.08,4.4-17.41,4.4-17.41c1.18,0.97,2.23,1.91,3.17,2.85C411.68,125.32,410.31,132,407.85,135.97z"/>
		<path class="st2" d="M431.2,114.85c0,0,21.23-1.62,10.88-28.81c0,0-21.43,3.34-12.36,27.51c0,0,3.76-15.36,9.13-19.79
			C438.85,93.76,433.68,103.46,431.2,114.85z"/>
		<path class="st1" d="M447.56,107c0,0,18.07,3.39,15.51-21.6c0,0-18.62-2.01-16.46,20.18c0,0,6.57-11.97,12.04-14.46
			C458.65,91.11,452.17,98.05,447.56,107z"/>
		<path class="st0" d="M446.57,114.05c0,0,6.02,18.19,27.52,3.25c0,0-7.56-17.99-26.7-4.83c0,0,14.23-0.05,19.26,3.68
			C466.65,116.15,457.06,113.74,446.57,114.05z"/>
		<path class="st2" d="M440.02,118.29c0,0-15.86,13.92,8.54,29.31c0,0,14.99-15.41-6.59-29.16c0,0,6.17,14.41,4.55,21.11
			C446.52,139.55,444.84,128.79,440.02,118.29z"/>
		<path class="st0" d="M416.22,144.92c0,0,11.58,17.64,30.21-4.37c0,0-13.17-17-29.79,2.46c0,0,15.13-4.1,21.54-1.56
			C438.19,141.44,427.29,141.61,416.22,144.92z"/>
		<path class="st1" d="M408.44,186.88c0,0,19.07,9.02,23.51-19.48c0,0-20.1-7.64-24.15,17.62c0,0,10.78-11.38,17.57-12.56
			C425.38,172.47,416.17,178.28,408.44,186.88z"/>
		<path class="st2" d="M412.29,191.94c0,0-5.31,20.42,23.51,19.47c0,0,3.77-21.17-21.81-20.44c0,0,13.19,8.47,15.61,14.93
			C429.6,205.9,422.17,197.93,412.29,191.94z"/>
		<path class="st2" d="M398.89,269.42c0,0,20.62-4.49,6.75-29.77c0,0-20.59,6.2-8.38,28.69c0,0,1.6-15.6,6.26-20.67
			C403.52,247.67,399.77,257.89,398.89,269.42z"/>
		<path class="st1" d="M429.38,253.27c0,0,16.87-12.68-6.28-29.88c0,0-16.12,14.22,4.35,29.58c0,0-5.05-14.84-2.93-21.4
			C424.51,231.57,425.37,242.43,429.38,253.27z"/>
		<path class="st0" d="M443.57,214.62c0,0,8.57-19.28-20.02-23.04c0,0-7.17,20.27,18.19,23.72c0,0-11.63-10.51-12.97-17.27
			C428.76,198.03,434.79,207.1,443.57,214.62z"/>
		<path class="st2" d="M448.61,192.76c0,0,20.17-14.39-6.51-35.25c0,0-19.33,16.23,4.25,34.84c0,0-5.5-17.56-2.82-25.2
			C443.53,167.15,444.22,179.92,448.61,192.76z"/>
		<path class="st0" d="M464.61,162.08c0,0,6.47-17.96-19.58-19.47c0,0-5.13,18.76,17.97,20.21c0,0-11.19-8.71-12.84-14.73
			C450.16,148.09,456.2,155.87,464.61,162.08z"/>
		<path class="st2" d="M470.17,151.56c0,0,25.08,7.03,24.57-28.57c0,0-26.03-5.14-25.73,26.44c0,0,10.76-16.08,18.78-18.92
			C487.79,130.52,477.79,139.5,470.17,151.56z"/>
		<path class="st0" d="M495.2,156.82c0,0,32.81-4.63,14.02-45.84c0,0-32.96,7.32-16.45,43.96c0,0,4.31-24.24,12.2-31.65
			C504.96,123.3,497.91,138.88,495.2,156.82z"/>
		<path class="st1" d="M514.43,153.64c0,0,28.68,5.72,25.06-34.09c0,0-29.59-3.52-26.54,31.82c0,0,10.67-18.93,19.4-22.8
			C532.35,128.56,521.92,139.48,514.43,153.64z"/>
		<path class="st1" d="M463,104.79c0,0,14.04,19.42,34.06-6.51c0,0-15.81-18.61-33.67,4.32c0,0,16.96-5.43,24.36-2.88
			C487.75,99.71,475.4,100.46,463,104.79z"/>
		<path class="st2" d="M512.74,160.16c0,0-0.67,20.92,27.01,13.69c0,0-0.99-21.3-25.58-15c0,0,14.62,5.31,18.37,11.02
			C532.54,169.87,523.61,163.79,512.74,160.16z"/>
		<path class="st0" d="M494.89,168.1c0,0-1.18,17.35,22.02,12.17c0,0-0.19-17.72-20.79-13.21c0,0,11.98,4.84,14.93,9.69
			C511.05,176.75,503.81,171.43,494.89,168.1z"/>
		<path class="st0" d="M464.85,195.64c0,0,11.27,16.64,28.71-4.58c0,0-12.77-16-28.33,2.75c0,0,14.35-4.11,20.49-1.79
			C485.72,192.03,475.35,192.34,464.85,195.64z"/>
		<path class="st2" d="M474.12,247.39c0,0,9.82-8.98-5.76-18.37c0,0-9.25,9.9,4.52,18.29c0,0-4.07-9.01-3.14-13.25
			C469.75,234.07,470.94,240.83,474.12,247.39z"/>
		<path class="st2" d="M451.42,260.79c0,0-2.36,21.44,26.65,16.22c0,0,0.69-21.96-25.07-17.45c0,0,14.59,6.62,17.99,12.79
			C470.99,272.34,462.3,265.39,451.42,260.79z"/>
		<path class="st2" d="M430.35,278.43c0,0-19.87,8.38-1.19,31.18c0,0,19.51-10.1,3.03-30.4c0,0,1.33,15.97-2.41,21.94
			C429.79,301.15,431.63,290.17,430.35,278.43z"/>
		<path class="st1" d="M454.23,287.89c0,0-11.56,12.68,9.54,22.92c0,0,10.73-13.8-7.95-22.98c0,0,6.28,11.09,5.58,16.66
			C461.4,304.5,459.07,295.95,454.23,287.89z"/>
		<path class="st0" d="M463.22,286.54c0,0,6.43,15.91,24.79,1.31c0,0-7.81-15.65-24.15-2.77c0,0,12.72-0.87,17.43,2.17
			C481.3,287.26,472.58,285.66,463.22,286.54z"/>
		<path class="st2" d="M492.38,217.42c0,0,9.92-16.18-15.13-22.91c0,0-8.79,17.22,13.41,23.3c0,0-9.13-10.74-9.52-16.93
			C481.13,200.88,485.44,209.68,492.38,217.42z"/>
		<path class="st0" d="M489.26,223.8c0,0-2.25-15.96-22.29-6.82c0,0,3.56,16.03,21.38,8c0,0-11.79-2.1-15.39-5.93
			C472.95,219.05,480.53,222.48,489.26,223.8z"/>
		<path class="st1" d="M497.62,220.68c0,0,16.08,0.97,11.13-20.49c0,0-16.42,0.29-12.11,19.35c0,0,4.4-11.13,8.88-13.9
			C505.53,205.65,500.66,212.39,497.62,220.68z"/>
		<path class="st2" d="M495.01,227.74c0,0,11.16,15.85,27.61-4.93c0,0-12.6-15.21-27.28,3.16c0,0,13.77-4.22,19.73-2.09
			C515.07,223.88,505.07,224.36,495.01,227.74z"/>
		<path class="st1" d="M529.06,199.46c0,0,11.72-15.44-13.07-24.82c0,0-10.67,16.62,11.28,25.04c0,0-8.2-11.84-7.97-18.17
			C519.3,181.51,522.79,190.89,529.06,199.46z"/>
		<path class="st0" d="M533.58,197.31c0,0,19.17,13.1,28.92-17.1c0,0-20.52-11.78-29.29,14.98c0,0,13.68-10.51,21.27-10.61
			C554.48,184.57,543.46,189.3,533.58,197.31z"/>
		<path class="st1" d="M530.59,203.8c0,0,0.1,16.49,21.68,9.97c0,0-1.41-16.74-20.59-11.05c0,0,11.67,3.74,14.79,8.13
			C546.47,210.85,539.26,206.33,530.59,203.8z"/>
		<path class="st0" d="M541.9,235.35c0,0,21.15-4.15,7.51-30.26c0,0-21.15,5.9-9.16,29.12c0,0,1.96-15.89,6.82-20.98
			C547.08,213.24,543.03,223.6,541.9,235.35z"/>
		<path class="st1" d="M558.63,229.61c0,0,21.13-1.53,10.93-28.63c0,0-21.34,3.24-12.4,27.33c0,0,3.8-15.27,9.16-19.66
			C566.31,208.65,561.13,218.28,558.63,229.61z"/>
		<path class="st2" d="M557.7,235.83c0,0,3.93,21.12,30.09,7.79c0,0-5.67-21.14-28.94-9.42c0,0,15.82,2.11,20.84,7.01
			C579.69,241.21,569.4,237.07,557.7,235.83z"/>
		<path class="st1" d="M549.92,238.62c0,0-10.65,15.65,13.99,23.55c0,0,9.57-16.75-12.26-23.85c0,0,8.59,11.14,8.69,17.32
			C560.34,255.64,556.47,246.67,549.92,238.62z"/>
		<path class="st0" d="M536.69,270.69c0,0,10.75,17.38,29.36-3.45c0,0-12.3-16.79-28.9,1.61c0,0,14.75-3.57,20.89-0.96
			C558.04,267.9,547.49,267.77,536.69,270.69z"/>
		<path class="st2" d="M532.23,275.03c0,0-17.86,9.54,1.56,29.25c0,0,17.38-11.11,0.23-28.68c0,0,2.61,14.82-0.37,20.72
			C533.65,296.32,534.43,285.9,532.23,275.03z"/>
		<path class="st1" d="M541.75,279.38c0,0-2.95,22.11,27.17,17.41c0,0,1.23-22.69-25.51-18.64c0,0,14.93,7.19,18.3,13.65
			C561.71,291.79,552.89,284.39,541.75,279.38z"/>
		<path class="st1" d="M526.05,272.15c0,0-11.09-13.72-24.77,6.13c0,0,12.36,13.05,24.58-4.51c0,0-12.25,4.66-17.79,3.08
			C508.06,276.86,517.11,275.82,526.05,272.15z"/>
		<path class="st1" d="M465.49,146.14c0,0,14.24-9.98-4.36-24.78c0,0-13.67,11.28,2.78,24.48c0,0-3.76-12.36-1.83-17.7
			C462.07,128.14,462.49,137.1,465.49,146.14z"/>
		<path class="st1" d="M353.67,170.23c0,0,13.29,15.68,28.7-7.82c0,0-14.76-14.87-28.51,5.92c0,0,14.14-5.76,20.64-4.08
			C374.49,164.25,363.98,165.71,353.67,170.23z"/>
		<path class="st1" d="M345.49,199.78c0,0,19.54,12.44,28.27-18c0,0-20.84-11.08-28.71,15.89c0,0,13.3-10.92,20.86-11.28
			C365.91,186.4,355.08,191.47,345.49,199.78z"/>
		<path class="st0" d="M373.37,231.36c0,0,16.76-17-12.01-32.38c0,0-15.67,18.6,9.8,32.37c0,0-8.13-15.76-6.85-23.45
			C364.31,207.89,367.08,219.9,373.37,231.36z"/>
		<path class="st2" d="M388.79,197.39c0,0,3.99-23.54-28.4-19.65c0,0-2.18,24.22,26.58,20.91c0,0-15.7-8.26-19.06-15.29
			C367.91,183.35,377.06,191.6,388.79,197.39z"/>
		<path class="st2" d="M382.4,161.86c-1.95-0.18-3.7-0.46-5.28-0.8c-17.69-3.98-12.16-17.79-12.16-17.79
			c6.18,4.89,10.86,10.71,12.37,12.68c0,0.01,0,0.01,0,0.01c0.34,0.44,0.52,0.68,0.52,0.68c-0.1-0.43-0.25-0.87-0.46-1.33
			c-2.34-5.51-10.92-12.68-10.92-12.68c5.95,0.59,9.83,2.34,12.31,4.58C385.17,152.97,382.4,161.86,382.4,161.86z"/>
		<path class="st0" d="M314.72,70.96c0,0,16.42,6.6,18.7-17.48c0,0-17.21-5.39-19.33,15.96c0,0,8.45-10.07,14.08-11.4
			C328.18,58.04,320.76,63.37,314.72,70.96z"/>
		<path class="st1" d="M343.42,63.25c0,0,8.63-19.92-20.83-23.52c0,0-7.18,20.93,18.94,24.23c0,0-12.07-10.7-13.51-17.64
			C328.02,46.32,334.31,55.6,343.42,63.25z"/>
		<path class="st2" d="M339.81,171.32c-0.84,6.15-2.57,10.12-4.65,12.66c-5.6,6.82-13.72,3.18-13.72,3.18
			c5.8-6.73,12.77-11.41,13.2-11.7c-5.38,1.05-13.74,10.24-13.74,10.24c2.18-15.51,12.23-15.64,16.73-14.89v0.01
			C338.97,171.02,339.81,171.32,339.81,171.32z"/>
		<path class="st1" d="M311.54,224.83c0,0,20.11,6.19,20.43-22.58c0,0-20.92-4.68-21.32,20.84c0,0,9.02-12.77,15.55-14.9
			C326.2,208.18,317.94,215.24,311.54,224.83z"/>
		<path class="st2" d="M291.87,197.33c0,0,10.19,17.94,29.75-2.37c0,0-11.78-17.41-29.22,0.53c0,0,15.02-3.05,21.11-0.17
			C313.52,195.32,302.88,194.8,291.87,197.33z"/>
		<path class="st2" d="M281.17,114.42c0,0,19.17-6.37,3.39-29.03c0,0-18.96,8-5.05,28.17c0,0-0.07-15.01,3.85-20.31
			C283.35,93.25,280.83,103.37,281.17,114.42z"/>
		<path class="st1" d="M248.42,116.35v0.01c-0.34,0.75-0.75,1.42-1.19,2.01c-3.66,4.97-9.95,5.32-9.95,5.32
			c2.42-10.07,7.21-18.59,7.21-18.59c-4.86,3.83-8.49,17.4-8.49,17.4c-4.37-12.47,0.11-18.61,4.7-21.57
			c3.38-2.19,6.81-2.64,6.81-2.64c0.03,0.07,0.05,0.15,0.08,0.22C250.55,107,250.17,112.62,248.42,116.35z"/>
		<path class="st1" d="M205.4,276.85c0,0,6.02,6.46,10.31,14.79c0,0-16.34,3.06-14.51-19.14c0.03-0.32,0.06-0.65,0.09-0.98
			c0,0,5.18-0.56,9.55,2.33c0.01,0.01,0.02,0.01,0.03,0.02c0.01,0,0.01,0,0.01,0c3.6,2.4,6.63,7.13,5.71,16.45
			C216.58,290.33,210.48,279.18,205.4,276.85z"/>
		<path class="st0" d="M218.33,91.11c-0.02,4.26-0.53,7.68-1.37,10.41v0.01c-4.23,13.8-16.87,10-16.87,10
			c5.69-8.66,13.08-15.06,13.08-15.06c-5.86,1.96-13.89,13.5-13.89,13.5c0.08-9.09,3.08-13.93,6.68-16.47
			c1.75-1.24,3.62-1.93,5.39-2.3h0.01c1.27-0.26,2.46-0.36,3.49-0.37h0.59c0.2,0.01,0.41,0.01,0.59,0.02
			C217.43,90.92,218.33,91.11,218.33,91.11z"/>
		<path class="st4" d="M336.06,79.56c-2.43-0.4-4.71-0.85-6.85-1.35c-28.61-6.7-31.49-21.88-31.49-21.88"/>
		<path class="st3" d="M522.62,250.24c0,0-5.96-34.95,9.68-53.25c0,0-11.09,33.73-3.33,50.4L522.62,250.24z"/>
	</g>
	<polyline class="st4" points="246.27,539.02 246.27,539.03 246.27,539.03 	"/>
	<path class="st3" d="M539.28,278.58c-33.52-29.31-87.37-21.57-87.37-21.57c-4.59,5.86-10.06,10.9-10.06,10.9
		c5.47,12.56,20.34,18.23,20.34,18.23c-14.03,3.56-25.35-12.78-25.35-12.78c-26.47,18.37-55.1,17.38-55.1,17.38
		c0.89,22.5-6.44,40.32-15.17,53.38c-8.68,12.99-13.59,28.14-14.38,43.74c-0.31,6.09-0.42,12.44-0.38,18.95
		c0.22,35.54,5.1,52.58,9.36,81.09c5.9,24.4,26.99,41.56,51.89,61.09c-0.37-0.29-2.51-0.13-3.1-0.19c-1.41-0.15-2.81-0.36-4.21-0.59
		c-14.89-2.43-29.19-7.74-43.55-12.19c-11.74-3.64-24.23-3.83-36.41-3.79c-10.6,0.04-22.08,0.75-31.99,4.92
		c-4.42,1.86-8.21,4.67-12.82,6.19c-2.18,0.72-4.4,1.27-6.67,1.58c-10.04,1.39-19.17-1.7-24.14-3.94c-0.14-0.06-0.27-0.12-0.4-0.18
		c-0.13-0.05-0.25-0.11-0.38-0.17c-0.14-0.07-0.27-0.12-0.4-0.2c-0.25-0.12-0.5-0.23-0.72-0.35c-0.08-0.04-0.16-0.08-0.24-0.12
		c-0.21-0.1-0.4-0.2-0.57-0.29c-0.07-0.03-0.13-0.07-0.19-0.1c-0.1-0.06-0.2-0.11-0.29-0.16c-0.23-0.13-0.41-0.23-0.53-0.3
		c-0.1-0.06-0.16-0.09-0.18-0.1c38.52-1.94,47.89-34.36,48.7-37.35c0.01-0.05,0.02-0.09,0.03-0.12c0.01-0.04,0.02-0.07,0.02-0.1
		c10.59-47.53,11.04-66.36,9.3-94.63c-1.36-22.13-4.06-35.77-4.28-36.86c-0.01-0.05-0.01-0.07-0.01-0.07
		c-0.78-7.52-2.36-14.44-4.48-20.73c-6.59-19.72-18.28-33.42-26.24-41.01l-0.03-0.03c-0.89-0.88-1.84-1.76-2.81-2.6
		c-0.42-0.38-0.84-0.75-1.28-1.09c-0.07-0.06-0.13-0.11-0.19-0.17c-0.04-0.03-0.08-0.07-0.12-0.09c-0.13-0.1-0.25-0.2-0.37-0.31
		c-0.27-0.22-0.55-0.44-0.82-0.65c-0.07-0.05-0.13-0.1-0.2-0.16c-0.2-0.17-0.41-0.32-0.61-0.48c-0.21-0.16-0.42-0.33-0.59-0.46
		c-0.9-0.67-1.39-1.01-1.39-1.01c-1.85-1.31-3.82-2.57-5.92-3.75c-12.51-7.06-28.15-6.52-39.78,1.9c-0.51,0.36-1,0.74-1.5,1.13
		c0,0-0.56-7.56,14.24-15.66c0,0-5.1-7.66-17.1-10.87c-0.01,0-0.01-0.01-0.02-0.01c-4.36-2.89-9.55-2.33-9.55-2.33
		c-0.03,0.34-0.06,0.66-0.09,0.98c-1.3-0.03-2.63-0.02-4.04,0.06c-1.36,0.08-2.69,0.25-4.05,0.43c-6.4,0.82-27.72,3.37-43.92,2.67
		c0,0-9.21,12.99-26.39,9.85c0,0,15.92-4.62,19.28-13.83c0,0-2.51-2.74-7.31-6.52c-2-1.58-4.4-3.34-7.18-5.15
		c-9.83-6.44-24.44-13.64-43.13-16.2c0,0,32.56,0.95,53.33,17.34c5.02,3.98,11.26,6.12,17.66,6.39c5.13,0.21,11.32-0.03,17.42-1.52
		c0,0-13.83-12.15-7.11-28.91c0,0,5.86,22.83,16.54,23.25c0,0,3.4-0.42,8.55-0.64c0.07,0.02,0.11,0.03,0.11,0.03v-0.05
		c11.71-0.48,32.33,0.12,42.92,9.17c2.8,2.38,5.79,4.52,9.18,5.91c2.43,1,5.28,1.86,8.46,2.34c4.43,0.66,8.74,1.94,12.78,3.85
		c13.17,5.61,23.27,16.34,30.38,26.43c-2.07-5.52-4.72-10.84-7.94-15.83c-4.09-6.36-9.28-13.3-15.85-20.27
		c2.22-4.15,1.34-8.74,1.34-8.74c-3.79-0.08-6.78,0.33-9.13,1.07c-1.06-0.98-2.15-1.94-3.27-2.91c0.31-0.74,0.44-1.19,0.44-1.19
		c-1.41-0.76-2.76-1.42-4.03-1.95c-6.31-5.63-12.31-11.59-17.85-17.99c-7.16-8.29-15.75-19-22.26-29.55
		c-1.46-2.37-4.05-3.81-6.83-3.76c-13.17,0.27-53.05-0.12-65.47-17.77c-1.39-1.95-3.52-3.26-5.88-3.69l-32.12-5.75l30.79-2.72
		c0,0-12.14-20.53-7.96-48.82c0,0,3.97,70.82,60.76,68.73c0,0-3.8-3.47-5.94-10.8c-0.32-1.11-0.61-2.31-0.83-3.61
		c0.95-1.37,1.9-2.93,2.84-4.75c0,0-1.3-1.07-3.41-2.02c0-0.78,0.03-1.58,0.07-2.4c0.07-1.17,0.18-2.39,0.35-3.66
		c0,0,0.59,1.7,1.62,4.25c0.81,1.99,1.91,4.51,3.23,7.12c3.56,7.13,8.73,15.01,14.22,15.24h16.1c2.1,0,4.05,1.04,5.21,2.79
		c1.59,2.38,4.08,6.03,6.98,9.96c0.01,0.01,0.01,0.02,0.02,0.03c0.55,0.74,1.12,1.5,1.69,2.25c5.92,7.79,13.02,15.87,17.57,16.82
		c0,0,0.83-9.64,6.06-17.81c0,0,1.21,8.7,1.06,16.52c-0.12,5.79,2.87,11.19,7.84,14.17c7.86,4.7,19.14,12.12,26.91,20.1
		c2.16,2.23,5.9,1.54,7.04-1.35c1.02-2.54,1.88-5.94,1.93-10.11c0.06-6.44-2.18-12.69-6.03-17.88c0.36-0.64,0.72-1.3,1.08-1.99
		c0,0-1.52-1.24-3.96-2.35c-5.97-9.47-14.08-25.01-17.73-38.73c-1.57-5.9-5.24-11.04-10.22-14.57
		c-10.76-7.67-30.35-20.48-43.53-35.69c-5.81-6.72-12.44-12.71-19.98-17.41c-6.01-3.77-13.07-7.42-19.41-8.76
		c0,0,23.87-6.09,47.55,20.72c-0.29-0.45-8.05-12.62-10.78-30.82c0.84-2.72,1.34-6.14,1.36-10.4c0,0-0.89-0.2-2.29-0.27
		c-0.11-4.72,0.18-9.71,1.03-14.91c0,0,7.4,43.16,28.49,56.98l1.67-14.54c0.45-0.6,0.85-1.27,1.2-2.02
		c0.76,13.25,4.5,42.05,22.48,45.76c0,0,10.48-26.05,10.48-43.09c0,0,3.45,27.78,2.34,53.33c-0.36,8.33,1.67,16.59,6,23.72
		c4.45,7.3,10.79,16.85,18.26,25.51c3.35,3.88,5.77,8.46,6.95,13.45c1.44,6.12,3.09,15.21,3.54,25.98v1.69
		c0,15.98,3.84,31.67,11.2,45.69c0.66-0.64,1.3-1.28,1.89-1.9c17.44-18.09,12.35-29.9,12.08-30.47c-0.01-0.02-0.01-0.03-0.01-0.03
		c-0.18-0.87-0.4-1.68-0.64-2.43c-0.98-3.04-3.02-5.58-5.56-7.51c-9.83-7.49-10.59-22.08-10.59-22.08c0.24-2.97,0.42-5.71,0.56-8.23
		c0-0.01,0.01-0.02,0.01-0.03c0.42-1.19,0.76-2.6,1-4.26c0,0-0.31-0.11-0.83-0.24c0.12-4.59,0.03-8.32-0.18-11.36
		c-0.41-5.84-1.28-9.11-2.03-10.91c-0.05-0.12-0.1-0.24-0.15-0.35c-0.64-1.42-1.17-1.76-1.17-1.76c-1.35-1.06-2.61-2.13-3.77-3.22
		c-1.41-1.3-2.68-2.61-3.85-3.93c-1.28-1.45-2.42-2.91-3.45-4.37c-0.07-0.1-0.13-0.19-0.2-0.29c-0.79-1.15-1.51-2.3-2.15-3.45
		c-0.78-1.39-1.46-2.79-2.05-4.17c-0.4-0.93-0.75-1.85-1.06-2.76c0.25-0.02,0.51-0.04,0.77-0.07c0,0,0.01-0.03,0.01-0.09
		c0.01-0.06,0.01-0.14,0.02-0.25c0.07-1.38,0.1-6.66-3.03-11.04c-0.08-1.36-0.09-2.66-0.05-3.9c0.25-8.07,2.61-13.58,2.61-13.58
		c0.21,7.35,1.81,13.51,4.08,18.61c1.13,2.52,2.42,4.79,3.79,6.81c6.91,10.2,15.88,14.24,15.88,14.24c1.43-3.54,2.6-7.38,3.57-11.37
		c2.08-2.53,3.81-6.51,4.65-12.65c0,0-0.84-0.31-2.18-0.53c3-21.46,1.65-42.63,1.65-42.63c-14.76-7.31-23.1-26.29-23.59-27.46
		c7.44,11.84,23.85,18.53,23.85,18.53c0.55-3.63,0.53-6.98,0.09-10.05c-0.83-5.86-3.15-10.69-5.71-14.44
		c-0.03-0.03-0.05-0.07-0.07-0.1c-0.02-0.01-0.03-0.03-0.03-0.05c-0.73-1.04-1.47-2-2.2-2.87c-0.07-0.08-0.14-0.18-0.22-0.25
		c0.13-0.83,0.21-1.72,0.23-2.68c0.05-1.96-0.16-4.21-0.67-6.78c-0.16-0.78-0.34-1.59-0.55-2.43c1.62,1.34,3.99,1.39,5.64-0.03
		c0.07-0.05,0.12-0.11,0.19-0.17c6.89-6.18,10.51-21.61,10.51-21.61c5.43,13.62-5.52,26.4-5.52,26.4
		c5.84,11.33,8.59,24.97,9.79,37.14c0.11,1.1,0.21,2.19,0.29,3.26c-1.88-0.45-4.1-0.73-6.68-0.8c0,0-2.6,10.71,7.26,14.87v0.48
		c0.01,8.53-0.55,14.18-0.55,14.18c12.18-6.83,12.37-22.37,12.37-23.41c1.61,15.11-4.18,28.07-8.52,35.37
		c-4.5,7.58-8.03,15.73-9.92,24.34c-4.96,22.77-2.8,45.91,9.7,48.21c15.93,2.93,28.84-16.63,28.84-16.63
		c5.19-7.19,6.95-14.23,7.06-20.36c0.12-8.61-3.28-16.89-9-23.31c-2.29-2.56-4.05-5.19-5.38-7.83c-0.91-1.8-1.62-3.61-2.14-5.41
		c-0.01-0.02-0.01-0.04-0.01-0.05c-0.42-1.42-0.72-2.84-0.93-4.25c-0.12-0.81-0.22-1.62-0.27-2.42c-0.05-0.76-0.08-1.51-0.09-2.25
		c1.08,0.23,2.29,0.42,3.62,0.54c0,0,0.06-0.2,0.14-0.54c0.05-0.23,0.1-0.51,0.15-0.86c0.29-2.03,0.31-5.88-2.78-8.65
		c0.1-0.42,0.2-0.82,0.31-1.23c0.38-1.45,0.83-2.85,1.32-4.2c0.14-0.39,0.29-0.78,0.44-1.16c2.36-1.86,4.46-5.17,5.6-10.87
		c1.01-1.55,2.21-2.95,3.51-4.28c0.46-0.48,0.95-0.96,1.44-1.42c15.44-14.54,10.44-51.87,10.44-51.87
		c12.15,16.94,10.37,33.76,5.82,46.04c-0.94-0.93-1.98-1.87-3.17-2.84c0,0-9.15,7.33-4.4,17.41c-1.9,2.79-3.28,4.35-3.28,4.35
		c-14.67,18.02,0,27.23,0,27.23c3.52-9.53,8.15-17.46,13.28-24.07c0.44-0.43,0.95-0.96,1.45-1.61c0.1-0.13,0.2-0.26,0.3-0.4
		c0.2-0.27,0.38-0.55,0.57-0.84c0.01-0.01,0.02-0.02,0.03-0.03c0.01-0.01,0.01-0.02,0.02-0.03c19.25-22.71,44.07-28.11,45.08-28.31
		c-40.19,22.63-54.44,65.77-54.44,65.77c9.45,8.29,11.49,23.8,11.92,29.92c0.1,1.37,0.16,2.76,0.04,4.15
		c-2.04,25.02-41.71,49.52-41.71,49.52c7.34,3.15,9.64,17.4,9.64,17.4c26.48,1.11,47.74-13.67,59.09-23.77
		c5.44-4.83,8.06-12.01,7.34-19.25c-2.96-29.51,12.35-46.86,12.35-46.86c10.69-11.1,8.67-37.22,8.67-37.22
		c4.87,5.17,6.63,21.92,6.63,21.92c16.55-17.18,49.65-13.83,49.65-13.83c-63.5,15.38-68.76,61.68-68.29,79.79
		c0.16,5.91,4.42,10.97,10.26,11.92c5.02,0.8,5.35,1.43,10.01,1.27c9.73-0.33,19.47-30.38,19.47-30.38
		c5.24,16.85-8.18,32.78-8.18,32.78c6.88,0.84,29.08,6.51,29.08,6.51c2.51-3.26,5.18-6.12,7.92-8.63c1.77-1.63,3.57-3.1,5.39-4.44
		c18.45-13.66,38.24-13.68,38.34-13.68c-27.34,5.84-44.32,30.36-44.32,30.36C533.51,266.51,539.11,278.23,539.28,278.58z"/>
</g>
<g>
	<path class="st5" d="M732.86,395.84V281.38h34.95v176.88h-33.85L658.1,343.57v114.69h-35.06V281.38h33.85L732.86,395.84z"/>
	<path class="st5" d="M923.62,328.98v129.27h-34.29v-17.27c-4.04,6.69-9.34,11.79-15.88,15.28c-6.54,3.5-13.89,5.25-22.05,5.25
		c-11.32,0-21.52-2.98-30.6-8.93c-9.08-5.95-16.15-14.12-21.22-24.5c-5.07-10.38-7.61-21.91-7.61-34.59
		c0-12.6,2.53-24.07,7.61-34.42c5.07-10.35,12.15-18.51,21.22-24.5c9.08-5.99,19.28-8.98,30.6-8.98c8.16,0,15.51,1.75,22.05,5.25
		c6.54,3.5,11.83,8.59,15.88,15.28v-17.15H923.62z M880.06,367.37c-6.03-6.85-13.71-10.27-23.04-10.27c-9.48,0-17.31,3.5-23.49,10.5
		c-5.88,6.92-8.82,15.56-8.82,25.9c0,10.58,3,19.31,8.99,26.19c5.99,6.88,13.77,10.33,23.32,10.33c9.33,0,17.02-3.42,23.04-10.27
		s9.04-15.6,9.04-26.25C889.11,382.69,886.09,373.98,880.06,367.37z"/>
	<path class="st5" d="M1044.57,453.71c-3.46,2.41-7.94,4.32-13.45,5.72c-5.51,1.4-11.21,2.1-17.09,2.1
		c-15.29,0-26.98-4.57-35.06-13.71c-8.09-9.14-12.13-22.5-12.13-40.08v-47.02h-25.03v-31.74h25.03v-33.95h34.29v33.95h38.92v31.74
		h-38.92v46.79c0,14.55,6.1,21.82,18.3,21.82c6.98,0,12.94-1.44,17.86-4.32L1044.57,453.71z"/>
	<path class="st5" d="M1185.16,328.98v129.27h-34.4v-17.27c-3.53,6.38-8.51,11.4-14.94,15.05c-6.43,3.66-13.69,5.48-21.78,5.48
		c-15.88,0-28.32-5.23-37.32-15.69s-13.51-24.99-13.51-43.58v-73.27h34.29v70.7c0,9.96,2.13,17.5,6.4,22.64
		c4.26,5.13,10.4,7.7,18.41,7.7c8.23,0,15.03-3.11,20.4-9.33c5.37-6.22,8.05-14.51,8.05-24.85v-66.85H1185.16z"/>
	<path class="st5" d="M1294.98,362.12c-3.9-1.25-8.86-1.87-14.89-1.87c-9.63,0-17.42,3.07-23.38,9.22
		c-5.96,6.15-8.93,14.24-8.93,24.27v64.52h-34.29V328.98h34.29v20.3c2.87-6.92,7.26-12.44,13.17-16.57
		c5.92-4.12,12.52-6.18,19.79-6.18c5.81,0,10.55,0.82,14.22,2.45V362.12z"/>
	<path class="st5" d="M1440.86,328.98v129.27h-34.29v-17.27c-4.04,6.69-9.34,11.79-15.88,15.28c-6.54,3.5-13.89,5.25-22.05,5.25
		c-11.32,0-21.52-2.98-30.6-8.93c-9.08-5.95-16.15-14.12-21.22-24.5c-5.07-10.38-7.61-21.91-7.61-34.59
		c0-12.6,2.53-24.07,7.61-34.42c5.07-10.35,12.15-18.51,21.22-24.5c9.08-5.99,19.28-8.98,30.6-8.98c8.16,0,15.51,1.75,22.05,5.25
		c6.54,3.5,11.83,8.59,15.88,15.28v-17.15H1440.86z M1397.3,367.37c-6.03-6.85-13.71-10.27-23.04-10.27
		c-9.48,0-17.31,3.5-23.49,10.5c-5.88,6.92-8.82,15.56-8.82,25.9c0,10.58,3,19.31,8.99,26.19c5.99,6.88,13.77,10.33,23.32,10.33
		c9.33,0,17.02-3.42,23.04-10.27c6.03-6.85,9.04-15.6,9.04-26.25C1406.35,382.69,1403.33,373.98,1397.3,367.37z"/>
	<path class="st5" d="M1503.49,458.26h-34.29V278.23h34.29V458.26z"/>
	<path class="st5" d="M1548.14,415.2c3.16,5.37,7.75,9.74,13.78,13.13c6.03,3.38,12.75,5.08,20.18,5.08
		c7.28,0,13.19-1.01,17.75-3.03c4.56-2.02,6.84-4.71,6.84-8.05c0-3.42-1.52-6.09-4.58-7.99c-3.05-1.91-9.13-3.99-18.25-6.24
		l-16.98-4.08c-12.79-2.96-22.35-7.51-28.67-13.65c-6.32-6.14-9.48-14.04-9.48-23.68c0-12.37,5.03-22.3,15.11-29.81
		c10.07-7.51,23.04-11.26,38.92-11.26c12.13,0,23.17,2.68,33.13,8.05c9.96,5.37,17.29,12.17,22,20.42l-25.58,15.28
		c-2.65-4.51-6.78-8.23-12.4-11.14c-5.62-2.92-11.56-4.37-17.81-4.37c-6.32,0-11.41,0.99-15.27,2.98c-3.86,1.98-5.79,4.65-5.79,7.99
		c0,3.27,1.53,5.81,4.58,7.64c3.05,1.83,9.13,3.91,18.25,6.24l16.98,3.97c12.86,3.03,22.44,7.6,28.72,13.71
		c6.28,6.11,9.43,14.06,9.43,23.86c0,12.29-5.4,22.25-16.21,29.87c-10.8,7.62-24.59,11.43-41.35,11.43
		c-13.82,0-25.95-3.11-36.38-9.33c-10.07-5.91-17.53-13.15-22.38-21.7L1548.14,415.2z"/>
</g>
<g>
	<path class="st6" d="M645.86,183.83h49.11v-46.08h22.91v114.51h-22.91v-46.46h-49.11v46.46h-22.99V137.75h22.99V183.83z"/>
	<path class="st6" d="M755.01,218.2c1.38,5.24,4.01,9.25,7.89,12.05c3.88,2.8,8.65,4.19,14.31,4.19c4.05,0,7.8-0.87,11.28-2.61
		s6.12-4.12,7.92-7.14l17.06,11.33c-3.43,5.54-8.44,9.98-15.03,13.33c-6.59,3.35-13.67,5.02-21.24,5.02
		c-8.47,0-16.04-1.91-22.7-5.74c-6.66-3.83-11.83-9.08-15.49-15.75c-3.66-6.67-5.5-14.19-5.5-22.55c0-12.59,3.88-23.06,11.64-31.42
		c7.76-8.36,17.56-12.54,29.41-12.54c7.8,0,14.82,1.75,21.06,5.25s11.14,8.46,14.71,14.88c3.57,6.42,5.35,13.74,5.35,21.94
		c0,3.83-0.14,7.08-0.43,9.74H755.01z M794.2,202.41c-0.52-4.99-2.57-9.01-6.14-12.09c-3.57-3.07-8.02-4.61-13.35-4.61
		c-4.76,0-8.92,1.47-12.49,4.42c-3.57,2.95-5.97,7.04-7.21,12.28H794.2z"/>
	<path class="st6" d="M912.42,168.57v83.7h-22.2v-11.18c-2.62,4.33-6.04,7.63-10.28,9.9c-4.24,2.27-8.99,3.4-14.28,3.4
		c-7.33,0-13.93-1.93-19.81-5.78c-5.88-3.85-10.46-9.14-13.74-15.86c-3.28-6.72-4.93-14.19-4.93-22.4c0-8.16,1.64-15.59,4.93-22.28
		c3.28-6.7,7.86-11.99,13.74-15.86c5.88-3.88,12.48-5.82,19.81-5.82c5.28,0,10.04,1.13,14.28,3.4c4.24,2.27,7.66,5.56,10.28,9.9
		v-11.1H912.42z M884.22,193.42c-3.9-4.43-8.88-6.65-14.92-6.65c-6.14,0-11.21,2.27-15.21,6.8c-3.81,4.48-5.71,10.07-5.71,16.77
		c0,6.85,1.94,12.5,5.82,16.96c3.88,4.46,8.91,6.69,15.1,6.69c6.04,0,11.02-2.22,14.92-6.65c3.9-4.43,5.85-10.1,5.85-17
		C890.07,203.34,888.12,197.7,884.22,193.42z"/>
	<path class="st6" d="M952.97,252.26h-22.2V135.71h22.2V252.26z"/>
	<path class="st6" d="M1031.35,249.32c-2.24,1.56-5.14,2.8-8.71,3.7c-3.57,0.91-7.26,1.36-11.07,1.36c-9.9,0-17.46-2.96-22.7-8.88
		c-5.23-5.92-7.85-14.57-7.85-25.95v-30.44h-16.21v-20.55h16.21v-21.98h22.2v21.98h25.2v20.55h-25.2v30.29
		c0,9.42,3.95,14.13,11.85,14.13c4.52,0,8.38-0.93,11.57-2.8L1031.35,249.32z"/>
	<path class="st6" d="M1122.94,252.26h-22.2v-45.85c0-6.45-1.38-11.33-4.14-14.65c-2.76-3.32-6.76-4.99-11.99-4.99
		c-5.33,0-9.73,2.01-13.21,6.04c-3.47,4.03-5.21,9.39-5.21,16.09v43.36h-22.2V135.71h22.2v43.96c2.28-4.13,5.52-7.38,9.71-9.74
		c4.19-2.37,8.9-3.55,14.13-3.55c10.28,0,18.33,3.39,24.16,10.16s8.74,16.18,8.74,28.21V252.26z"/>
	<path class="st6" d="M1151.21,224.39c2.05,3.47,5.02,6.31,8.92,8.5c3.9,2.19,8.26,3.29,13.06,3.29c4.71,0,8.54-0.65,11.49-1.96
		c2.95-1.31,4.43-3.05,4.43-5.21c0-2.22-0.99-3.94-2.96-5.17c-1.97-1.23-5.91-2.58-11.81-4.04l-10.99-2.64
		c-8.28-1.91-14.47-4.86-18.56-8.84c-4.09-3.98-6.14-9.09-6.14-15.33c0-8.01,3.26-14.44,9.78-19.3c6.52-4.86,14.92-7.29,25.2-7.29
		c7.85,0,15,1.74,21.45,5.21c6.45,3.47,11.19,7.88,14.24,13.22l-16.56,9.9c-1.71-2.92-4.39-5.33-8.03-7.21
		c-3.64-1.89-7.48-2.83-11.53-2.83c-4.09,0-7.39,0.64-9.89,1.93c-2.5,1.28-3.75,3.01-3.75,5.17c0,2.12,0.99,3.76,2.96,4.95
		c1.98,1.18,5.91,2.53,11.81,4.04l10.99,2.57c8.33,1.96,14.53,4.92,18.6,8.87c4.07,3.95,6.1,9.1,6.1,15.45
		c0,7.96-3.5,14.4-10.49,19.34c-6.99,4.94-15.92,7.4-26.77,7.4c-8.95,0-16.8-2.01-23.56-6.04c-6.52-3.83-11.35-8.51-14.49-14.05
		L1151.21,224.39z"/>
	<path class="st6" d="M1303.83,232.74c-3.33,6.72-7.93,12.01-13.81,15.86c-5.88,3.85-12.43,5.78-19.67,5.78
		c-5.24,0-9.98-1.15-14.24-3.44s-7.7-5.58-10.31-9.86v43.96h-22.2V168.57h22.2v11.1c2.62-4.28,6.05-7.57,10.31-9.86
		s9.01-3.44,14.24-3.44c5.42,0,10.53,1.15,15.31,3.44c4.78,2.29,8.86,5.39,12.24,9.29c3.38,3.9,6.04,8.56,7.99,13.97
		c1.95,5.41,2.93,11.17,2.93,17.26C1308.83,218.55,1307.16,226.02,1303.83,232.74z M1281.77,193.57c-3.85-4.53-8.87-6.8-15.06-6.8
		c-6.14,0-11.14,2.2-14.99,6.61c-3.86,4.41-5.78,10.06-5.78,16.96c0,7,1.93,12.69,5.78,17.07c3.86,4.38,8.85,6.57,14.99,6.57
		c6.19,0,11.22-2.23,15.1-6.69c3.88-4.46,5.82-10.11,5.82-16.96C1287.63,203.59,1285.67,198,1281.77,193.57z"/>
	<path class="st6" d="M1405.7,168.57v83.7h-22.2v-11.18c-2.62,4.33-6.04,7.63-10.28,9.9c-4.24,2.27-8.99,3.4-14.28,3.4
		c-7.33,0-13.93-1.93-19.81-5.78c-5.88-3.85-10.46-9.14-13.74-15.86c-3.29-6.72-4.93-14.19-4.93-22.4c0-8.16,1.64-15.59,4.93-22.28
		c3.28-6.7,7.86-11.99,13.74-15.86c5.88-3.88,12.48-5.82,19.81-5.82c5.28,0,10.04,1.13,14.28,3.4c4.24,2.27,7.66,5.56,10.28,9.9
		v-11.1H1405.7z M1377.5,193.42c-3.9-4.43-8.88-6.65-14.92-6.65c-6.14,0-11.21,2.27-15.2,6.8c-3.81,4.48-5.71,10.07-5.71,16.77
		c0,6.85,1.94,12.5,5.82,16.96c3.88,4.46,8.91,6.69,15.1,6.69c6.04,0,11.02-2.22,14.92-6.65c3.9-4.43,5.85-10.1,5.85-17
		C1383.36,203.34,1381.41,197.7,1377.5,193.42z"/>
	<path class="st6" d="M1503,252.26h-22.2v-45.85c0-6.45-1.38-11.33-4.14-14.65c-2.76-3.32-6.76-4.99-11.99-4.99
		c-5.33,0-9.73,2.01-13.21,6.04c-3.47,4.03-5.21,9.39-5.21,16.09v43.36h-22.2v-83.7h22.2v11.1c2.28-4.13,5.52-7.38,9.71-9.74
		c4.19-2.37,8.9-3.55,14.13-3.55c10.28,0,18.33,3.39,24.16,10.16s8.74,16.18,8.74,28.21V252.26z"/>
</g>
</svg>
